{"title":"Micro.Monsters.3D.Predator.2013.HOU.1080p.BRRip.x264.Hun.Eng","uid":11595869,"size":2528190916,"categoryP":"video","categoryS":"3d","magnet":"?xt=urn:btih:ab04bca141356cdf3e31efd5f15ea95e3dc4519d&amp;dn=Micro.Monsters.3D.Predator.2013.HOU.1080p.BRRip.x264.Hun.Eng&amp;tr=udp%3A%2F%2Ftracker.openbittorrent.com%3A80&amp;tr=udp%3A%2F%2Fopen.demonii.com%3A1337&amp;tr=udp%3A%2F%2Ftracker.coppersurfer.tk%3A6969&amp;tr=udp%3A%2F%2Fexodus.desync.com%3A6969","seeders":4,"leechers":0,"uploader":"rinoceros","files":-1,"time":1417283696,"description":"Micro.Monsters.3D.Predator.2013.HOU.1080p.BRRip.x264.Hun.Eng\n &lt;a href=&quot;\nhttp://www.imdb.com/title/tt2630716/&quot; rel=&quot;nofollow&quot; target=&quot;_NEW&quot;&gt;\nhttp://www.imdb.com/title/tt2630716/&lt;/a&gt;\n\nGeneral\nUnique ID                                : 213162567044195359415115881187288969161 (0xA05D9DF9904158E6BA5498FC3CFE6FC9)\nComplete name                            : F:Micro.Monsters.3D.Predator.2013.HOU.1080p.BRRip.x264.Hun.EngMicro Monsters 3D Predator (2013) HOU 1080p.mkv\nFormat                                   : Matroska\nFormat version                           : Version 4 / Version 2\nFile size                                : 2.35 GiB\nDuration                                 : 22mn 50s\nOverall bit rate                         : 14.8 Mbps\nEncoded date                             : UTC 2014-11-25 10:23:41\nWriting application                      : mkvmerge v7.2.0 ('On Every Street') 64bit built on Sep 13 2014 15:52:10\nWriting library                          : libebml v1.3.0 + libmatroska v1.4.1\nDURATION                                 : 00:22:50.176000000\nNUMBER_OF_FRAMES                         : 42818\nNUMBER_OF_BYTES                          : 109614080\n_STATISTICS_WRITING_APP                  : mkvmerge v7.2.0 ('On Every Street') 64bit built on Sep 13 2014 15:52:10\n_STATISTICS_WRITING_DATE_UTC             : 2014-11-25 10:23:41\n_STATISTICS_TAGS                         : BPS DURATION NUMBER_OF_FRAMES NUMBER_OF_BYTES\n\nVideo\nID                                       : 1\nFormat                                   : AVC\nFormat/Info                              : Advanced Video Codec\nFormat profile                           : &lt;a class=&quot;__cf_email__&quot; href=&quot;/cdn-cgi/l/email-protection&quot; data-cfemail=&quot;9bd3f2fcf3dbd7afb5aa&quot;&gt;[email&amp;#160;protected]&lt;/a&gt;&lt;script cf-hash='f9e31' type=&quot;text/javascript&quot;&gt;\n/* &lt;![CDATA[ */!function(){try{var t=&quot;currentScript&quot;in document?document.currentScript:function(){for(var t=document.getElementsByTagName(&quot;script&quot;),e=t.length;e--;)if(t[e].getAttribute(&quot;cf-hash&quot;))return t[e]}();if(t&amp;&amp;t.previousSibling){var e,r,n,i,c=t.previousSibling,a=c.getAttribute(&quot;data-cfemail&quot;);if(a){for(e=&quot;&quot;,r=parseInt(a.substr(0,2),16),n=2;a.length-n;n+=2)i=parseInt(a.substr(n,2),16)^r,e+=String.fromCharCode(i);e=document.createTextNode(e),c.parentNode.replaceChild(e,c)}}}catch(u){}}();/* ]]&gt; */&lt;/script&gt;\nFormat settings, CABAC                   : Yes\nFormat settings, ReFrames                : 4 frames\nCodec ID                                 : V_MPEG4/ISO/AVC\nDuration                                 : 22mn 50s\nBit rate                                 : 13.6 Mbps\nWidth                                    : 1 920 pixels\nHeight                                   : 1 080 pixels\nDisplay aspect ratio                     : 16:9\nFrame rate mode                          : Constant\nFrame rate                               : 23.976 fps\nColor space                              : YUV\nChroma subsampling                       : 4:2:0\nBit depth                                : 8 bits\nScan type                                : Progressive\nBits/(Pixel*Frame)                       : 0.274\nStream size                              : 2.17 GiB (92%)\nTitle                                    : Micro Monsters 3D Predator (2013) HOU 1080p\nWriting library                          : x264 core 129 r2245 bc13772\nEncoding settings                        : cabac=1 / ref=4 / deblock=1:-3:-3 / analyse=0x3:0x113 / me=umh / subme=10 / psy=1 / psy_rd=1.00:0.15 / mixed_ref=1 / me_range=32 / chroma_me=1 / trellis=2 / 8x8dct=1 / cqm=0 / deadzone=21,11 / fast_pskip=1 / chroma_qp_offset=-3 / threads=12 / lookahead_threads=2 / sliced_threads=0 / nr=0 / decimate=1 / interlaced=0 / bluray_compat=0 / constrained_intra=0 / bframes=10 / b_pyramid=2 / b_adapt=2 / b_bias=0 / direct=3 / weightb=1 / open_gop=0 / weightp=2 / keyint=250 / keyint_min=23 / scenecut=40 / intra_refresh=0 / rc_lookahead=60 / rc=crf / mbtree=1 / crf=17.0 / qcomp=0.70 / qpmin=0 / qpmax=69 / qpstep=4 / vbv_maxrate=40000 / vbv_bufsize=30000 / crf_max=0.0 / nal_hrd=none / frame-packing=4 / ip_ratio=1.40 / aq=1:0.70\nDefault                                  : Yes\nForced                                   : No\nDURATION                                 : 00:22:50.161000000\nNUMBER_OF_FRAMES                         : 32851\nNUMBER_OF_BYTES                          : 2385301981\n_STATISTICS_WRITING_APP                  : mkvmerge v7.2.0 ('On Every Street') 64bit built on Sep 13 2014 15:52:10\n_STATISTICS_WRITING_DATE_UTC             : 2014-11-25 10:23:41\n_STATISTICS_TAGS                         : BPS DURATION NUMBER_OF_FRAMES NUMBER_OF_BYTES\n\nAudio #1\nID                                       : 2\nFormat                                   : AC-3\nFormat/Info                              : Audio Coding 3\nMode extension                           : CM (complete main)\nFormat settings, Endianness              : Big\nCodec ID                                 : A_AC3\nDuration                                 : 22mn 50s\nBit rate mode                            : Constant\nBit rate                                 : 192 Kbps\nChannel(s)                               : 2 channels\nChannel positions                        : Front: L R\nSampling rate                            : 48.0 KHz\nBit depth                                : 16 bits\nCompression mode                         : Lossy\nStream size                              : 31.4 MiB (1%)\nTitle                                    : 2.0\nLanguage                                 : Hungarian\nDefault                                  : Yes\nForced                                   : No\n\nAudio #2\nID                                       : 3\nFormat                                   : AC-3\nFormat/Info                              : Audio Coding 3\nMode extension                           : CM (complete main)\nFormat settings, Endianness              : Big\nCodec ID                                 : A_AC3\nDuration                                 : 22mn 50s\nBit rate mode                            : Constant\nBit rate                                 : 640 Kbps\nChannel(s)                               : 6 channels\nChannel positions                        : Front: L C R, Side: L R, LFE\nSampling rate                            : 48.0 KHz\nBit depth                                : 16 bits\nCompression mode                         : Lossy\nStream size                              : 105 MiB (4%)\nTitle                                    : 5.1\nLanguage                                 : English\nDefault                                  : No\nForced                                   : No\n &lt;a href=&quot;\nhttp://www.port.hu/micro_monsters_3d/pls/fi/films.film_page?i_film_id=156743&amp;i_where=1&amp;i_city_id=3372&amp;i_county_id=-1&amp;i_episode_id=296380&quot; rel=&quot;nofollow&quot; target=&quot;_NEW&quot;&gt;\nhttp://www.port.hu/micro_monsters_3d/pls/fi/films.film_page?i_film_id=156743&amp;i_where=1&amp;i_city_id=3372&amp;i_county_id=-1&amp;i_episode_id=296380&lt;/a&gt;","torrent":{"xt":"urn:btih:ab04bca141356cdf3e31efd5f15ea95e3dc4519d","amp;dn":"Micro.Monsters.3D.Predator.2013.HOU.1080p.BRRip.x264.Hun.Eng","amp;tr":["udp%3A%2F%2Ftracker.openbittorrent.com%3A80","udp%3A%2F%2Fopen.demonii.com%3A1337","udp%3A%2F%2Ftracker.coppersurfer.tk%3A6969","udp%3A%2F%2Fexodus.desync.com%3A6969"],"infoHash":"ab04bca141356cdf3e31efd5f15ea95e3dc4519d","infoHashBuffer":{"type":"Buffer","data":[171,4,188,161,65,53,108,223,62,49,239,213,241,94,169,94,61,196,81,157]},"announce":[],"urlList":[]}}